<?xml version="1.0" encoding="UTF-8"?>
<!DOCTYPE svg PUBLIC "-//W3C//DTD SVG 1.1//EN" "http://www.w3.org/Graphics/SVG/1.1/DTD/svg11.dtd">
<!-- Creator: CorelDRAW X7 -->
<svg xmlns="http://www.w3.org/2000/svg" xml:space="preserve" width="84mm" height="55mm" version="1.1" style="shape-rendering:geometricPrecision; text-rendering:geometricPrecision; image-rendering:optimizeQuality; fill-rule:evenodd; clip-rule:evenodd"
viewBox="0 0 5384 3525"
 xmlns:xlink="http://www.w3.org/1999/xlink">
 <defs>
  <style type="text/css">
   <![CDATA[
    .fil0 {fill:#2B2A29}
    .fil3 {fill:#D7B56D}
    .fil1 {fill:#FEFEFE;fill-rule:nonzero}
    .fil2 {fill:#D7B56D;fill-rule:nonzero}
   ]]>
  </style>
 </defs>
 <g id="Layer_x0020_1">
  <metadata id="CorelCorpID_0Corel-Layer"/>
  <g id="_2019105081968">
   <polygon class="fil0" points="0,0 5384,0 5384,3525 0,3525 "/>
   <g>
    <path class="fil1" d="M1326 2505l7 0 0 152 -18 0 0 -108 -50 65 -6 0 -49 -65 0 108 -19 0 0 -152 7 0 64 86 64 -86zm162 22c16,-15 35,-22 57,-22 22,0 41,7 57,22 15,15 23,33 23,55 0,22 -8,40 -23,55 -16,15 -35,22 -57,22 -22,0 -41,-7 -57,-22 -15,-15 -23,-33 -23,-55 0,-22 8,-40 23,-55zm57 -6c-17,0 -32,6 -44,17 -11,12 -17,26 -17,44 0,17 6,32 17,43 12,12 27,18 44,18 18,0 32,-6 44,-18 11,-11 17,-26 17,-43 0,-17 -6,-32 -17,-43 -12,-12 -26,-18 -44,-18zm332 -14l0 90c0,20 -5,35 -17,46 -11,11 -26,16 -44,16 -18,0 -32,-5 -44,-16 -11,-11 -17,-26 -17,-46l0 -90 18 0 0 91c0,15 4,26 12,33 8,8 19,12 31,12 13,0 23,-4 31,-12 8,-7 12,-18 12,-33l0 -91 18 0zm245 0l18 0 0 152 -6 0 -98 -115 0 113 -18 0 0 -152 6 0 98 115 0 -113zm271 0l0 16 -55 0 0 134 -18 0 0 -134 -54 0 0 -16 127 0zm232 150l-13 -31 -75 0 -13 31 -20 0 67 -152 7 0 66 152 -19 0zm-20 -47l-31 -73 -30 73 61 0zm186 -103l0 150 -18 0 0 -150 18 0zm247 0l18 0 0 152 -7 0 -97 -115 0 113 -19 0 0 -152 7 0 98 115 0 -113zm397 0l20 0 -67 152 -6 0 -67 -152 20 0 50 117 50 -117zm167 0l0 150 -19 0 0 -150 19 0zm240 0l0 16 -80 0 0 46 62 0 0 16 -62 0 0 56 83 0 0 16 -101 0 0 -150 98 0zm330 0l20 0 -58 152 -6 0 -49 -118 -49 118 -6 0 -59 -152 20 0 43 114 48 -116 6 0 48 116 42 -114z"/>
    <path class="fil2" d="M3137 1267l50 0 -98 228 -15 0 -99 -228 51 0 56 135 55 -135zm126 0l0 223 -45 0 0 -223 45 0zm96 0l0 182 97 0 0 41 -142 0 0 -223 45 0zm175 0l0 182 97 0 0 41 -142 0 0 -223 45 0zm274 223l-13 -29 -90 0 -13 29 -48 0 99 -227 15 0 98 227 -48 0zm-29 -66l-29 -76 -29 76 58 0zm-700 267c24,0 43,6 58,19 15,14 22,31 22,53 0,21 -7,39 -22,52 -15,14 -34,20 -58,20l-38 0 0 79 -45 0 0 -223 83 0zm0 40l-38 0 0 64 38 0c11,0 19,-3 25,-9 6,-6 9,-13 9,-23 0,-10 -3,-17 -9,-23 -6,-6 -14,-9 -25,-9zm138 -11c22,-22 50,-33 83,-33 32,0 60,11 83,33 23,22 35,50 35,82 0,33 -12,61 -35,83 -23,22 -51,33 -83,33 -33,0 -61,-11 -83,-33 -23,-22 -35,-50 -35,-83 0,-32 12,-60 35,-82zm83 9c-20,0 -37,7 -51,21 -13,13 -20,31 -20,52 0,22 7,40 20,54 13,13 30,20 51,20 20,0 37,-7 51,-21 13,-13 20,-31 20,-53 0,-21 -7,-39 -20,-52 -14,-14 -31,-21 -51,-21zm343 185l-51 0 -58 -79 -33 0 0 79 -45 0 0 -223 83 0c24,0 43,6 58,19 14,14 22,31 22,53 0,14 -4,27 -11,38 -6,11 -16,19 -28,25l63 88zm-142 -183l0 64 38 0c11,0 19,-3 25,-9 6,-6 9,-13 9,-23 0,-10 -3,-17 -9,-23 -6,-6 -15,-9 -25,-9l-38 0zm275 -44c40,0 71,16 93,48l-32 27c-16,-22 -36,-33 -62,-33 -21,0 -38,7 -51,21 -13,13 -20,31 -20,52 0,22 7,40 21,54 13,14 31,21 53,21 26,0 45,-9 58,-27l0 -19 -61 0 0 -39 107 0 0 66c-10,18 -25,33 -43,44 -19,11 -40,16 -63,16 -33,0 -61,-11 -84,-33 -23,-22 -34,-50 -34,-83 0,-32 11,-60 34,-82 23,-22 51,-33 84,-33zm190 4l0 223 -45 0 0 -223 45 0zm72 29c23,-22 51,-33 83,-33 33,0 61,11 84,33 23,22 34,50 34,82 0,33 -11,61 -34,83 -23,22 -51,33 -84,33 -32,0 -60,-11 -83,-33 -23,-22 -34,-50 -34,-83 0,-32 11,-60 34,-82zm84 9c-21,0 -38,7 -51,21 -14,13 -20,31 -20,52 0,22 6,40 19,54 14,13 31,20 52,20 20,0 37,-7 50,-21 14,-13 21,-31 21,-53 0,-21 -7,-39 -21,-52 -13,-14 -30,-21 -50,-21z"/>
    <polygon class="fil2" points="1768,1257 1802,1257 1519,1942 1503,1942 1220,1257 1254,1257 1512,1882 "/>
    <path class="fil2" d="M2361 1257c60,0 107,17 141,50 34,33 51,76 51,128 0,52 -17,95 -51,129 -34,33 -81,50 -141,50l-189 0 0 318 -33 0 0 -675 222 0zm-2 29l-187 0 0 298 187 0c52,0 92,-14 119,-41 28,-28 42,-63 42,-107 0,-44 -14,-80 -42,-108 -27,-28 -67,-42 -119,-42z"/>
    <polygon class="fil3" points="1149,1257 1189,1257 1475,1943 1436,1943 "/>
    <polygon class="fil3" points="2062,1257 2102,1257 2102,1924 2062,1924 "/>
    <polygon class="fil3" points="2751,1118 2770,1118 2770,1968 2751,1968 "/>
    <polygon class="fil3" points="1141,2355 1141,2336 4243,2336 4243,2355 "/>
   </g>
  </g>
 </g>
</svg>
